<svg xmlns="http://www.w3.org/2000/svg" width="192" height="192" viewBox="0 0 192 192" role="img" aria-label="find my ride icon">
  <defs>
    <linearGradient id="g" x1="0" x2="1" y1="0" y2="1">
      <stop offset="0" stop-color="#0e3f3b"/>
      <stop offset="1" stop-color="#2e8276"/>
    </linearGradient>
  </defs>
  <rect width="192" height="192" rx="34" fill="url(#g)"/>
  <path d="M42 113l8-28c3-11 12-19 24-19h44c12 0 21 8 24 19l8 28v23h-14v-8H56v8H42v-23zm24-33l-6 21h72l-6-21c-1-5-6-8-11-8H77c-5 0-10 3-11 8zm5 39a8 8 0 1 1 0 16 8 8 0 0 1 0-16zm50 0a8 8 0 1 1 0 16 8 8 0 0 1 0-16z" fill="#f4f6ee"/>
  <circle cx="136" cy="56" r="22" fill="#f2b94c"/>
  <path d="M136 44c-6 0-11 5-11 11 0 8 11 20 11 20s11-12 11-20c0-6-5-11-11-11zm0 14a3 3 0 1 1 0-6 3 3 0 0 1 0 6z" fill="#0e3f3b"/>
</svg>
